REM DIRINDEX 1\2,1\3,1\4,1\5
REM DIRNAME cjc004,folder01,folder02,folder03,folder04
TITLE ""
FILE "1Q_j_2213-2226.mp3" MP3
  TRACK 01 AUDIO
    TITLE "3:cjc004_0338"
    INDEX 01 00:00:00
  TRACK 02 AUDIO
    TITLE "0:"
    INDEX 01 00:01:09
  TRACK 03 AUDIO
    TITLE "4:cjc004_0339"
    INDEX 01 00:01:42
  TRACK 04 AUDIO
    TITLE "0:"
    INDEX 01 00:02:61
  TRACK 05 AUDIO
    TITLE "5:cjc004_0340"
    INDEX 01 00:03:12
  TRACK 06 AUDIO
    TITLE "0:"
    INDEX 01 00:06:24
  TRACK 07 AUDIO
    TITLE "3:cjc004_0341"
    INDEX 01 00:07:09
  TRACK 08 AUDIO
    TITLE "0:"
    INDEX 01 00:08:24
  TRACK 09 AUDIO
    TITLE "4:cjc004_0342"
    INDEX 01 00:08:60
  TRACK 10 AUDIO
    TITLE "0:"
    INDEX 01 00:10:37
  TRACK 11 AUDIO
    TITLE "5:cjc004_0343"
    INDEX 01 00:10:65
  TRACK 12 AUDIO
    TITLE "0:"
    INDEX 01 00:15:21
  TRACK 13 AUDIO
    TITLE "3:cjc004_0344"
    INDEX 01 00:16:04
  TRACK 14 AUDIO
    TITLE "0:"
    INDEX 01 00:18:09
  TRACK 15 AUDIO
    TITLE "4:cjc004_0345"
    INDEX 01 00:18:44
  TRACK 16 AUDIO
    TITLE "0:"
    INDEX 01 00:20:71
  TRACK 17 AUDIO
    TITLE "5:cjc004_0346"
    INDEX 01 00:21:23
  TRACK 18 AUDIO
    TITLE "0:"
    INDEX 01 00:25:33
  TRACK 19 AUDIO
    TITLE "3:cjc004_0347"
    INDEX 01 00:26:13
  TRACK 20 AUDIO
    TITLE "0:"
    INDEX 01 00:27:30
  TRACK 21 AUDIO
    TITLE "4:cjc004_0348"
    INDEX 01 00:27:59
  TRACK 22 AUDIO
    TITLE "0:"
    INDEX 01 00:29:09
  TRACK 23 AUDIO
    TITLE "5:cjc004_0349"
    INDEX 01 00:29:38
  TRACK 24 AUDIO
    TITLE "0:"
    INDEX 01 00:34:28
  TRACK 25 AUDIO
    TITLE "3:cjc004_0350"
    INDEX 01 00:35:08
  TRACK 26 AUDIO
    TITLE "0:"
    INDEX 01 00:36:29
  TRACK 27 AUDIO
    TITLE "4:cjc004_0351"
    INDEX 01 00:36:60
  TRACK 28 AUDIO
    TITLE "0:"
    INDEX 01 00:39:07
  TRACK 29 AUDIO
    TITLE "5:cjc004_0352"
    INDEX 01 00:39:39
  TRACK 30 AUDIO
    TITLE "0:"
    INDEX 01 00:43:58
  TRACK 31 AUDIO
    TITLE "3:cjc004_0353"
    INDEX 01 00:44:30
  TRACK 32 AUDIO
    TITLE "0:"
    INDEX 01 00:45:43
  TRACK 33 AUDIO
    TITLE "4:cjc004_0354"
    INDEX 01 00:45:69
  TRACK 34 AUDIO
    TITLE "0:"
    INDEX 01 00:47:42
  TRACK 35 AUDIO
    TITLE "5:cjc004_0355"
    INDEX 01 00:47:64
  TRACK 36 AUDIO
    TITLE "0:"
    INDEX 01 00:51:65
  TRACK 37 AUDIO
    TITLE "3:cjc004_0356"
    INDEX 01 00:52:41
  TRACK 38 AUDIO
    TITLE "0:"
    INDEX 01 00:54:01
  TRACK 39 AUDIO
    TITLE "4:cjc004_0357"
    INDEX 01 00:54:34
  TRACK 40 AUDIO
    TITLE "0:"
    INDEX 01 00:56:45
  TRACK 41 AUDIO
    TITLE "5:cjc004_0358"
    INDEX 01 00:56:71
  TRACK 42 AUDIO
    TITLE "0:"
    INDEX 01 01:00:04
  TRACK 43 AUDIO
    TITLE "3:cjc004_0359"
    INDEX 01 01:00:59
  TRACK 44 AUDIO
    TITLE "0:"
    INDEX 01 01:01:72
  TRACK 45 AUDIO
    TITLE "4:cjc004_0360"
    INDEX 01 01:02:24
  TRACK 46 AUDIO
    TITLE "0:"
    INDEX 01 01:03:35
  TRACK 47 AUDIO
    TITLE "5:cjc004_0361"
    INDEX 01 01:03:61
  TRACK 48 AUDIO
    TITLE "0:"
    INDEX 01 01:10:41
  TRACK 49 AUDIO
    TITLE "3:cjc004_0362"
    INDEX 01 01:11:27
  TRACK 50 AUDIO
    TITLE "0:"
    INDEX 01 01:12:30
  TRACK 51 AUDIO
    TITLE "4:cjc004_0363"
    INDEX 01 01:12:62
  TRACK 52 AUDIO
    TITLE "0:"
    INDEX 01 01:13:63
  TRACK 53 AUDIO
    TITLE "5:cjc004_0364"
    INDEX 01 01:14:10
  TRACK 54 AUDIO
    TITLE "0:"
    INDEX 01 01:17:73
  TRACK 55 AUDIO
    TITLE "3:cjc004_0365"
    INDEX 01 01:18:54
  TRACK 56 AUDIO
    TITLE "0:"
    INDEX 01 01:19:64
  TRACK 57 AUDIO
    TITLE "4:cjc004_0366"
    INDEX 01 01:20:20
  TRACK 58 AUDIO
    TITLE "0:"
    INDEX 01 01:21:35
  TRACK 59 AUDIO
    TITLE "5:cjc004_0367"
    INDEX 01 01:21:59
  TRACK 60 AUDIO
    TITLE "0:"
    INDEX 01 01:26:54
  TRACK 61 AUDIO
    TITLE "3:cjc004_0368"
    INDEX 01 01:27:32
  TRACK 62 AUDIO
    TITLE "0:"
    INDEX 01 01:28:53
  TRACK 63 AUDIO
    TITLE "4:cjc004_0369"
    INDEX 01 01:29:07
  TRACK 64 AUDIO
    TITLE "0:"
    INDEX 01 01:30:32
  TRACK 65 AUDIO
    TITLE "5:cjc004_0370"
    INDEX 01 01:30:58
  TRACK 66 AUDIO
    TITLE "0:"
    INDEX 01 01:35:67
  TRACK 67 AUDIO
    TITLE "3:cjc004_0371"
    INDEX 01 01:36:43
  TRACK 68 AUDIO
    TITLE "0:"
    INDEX 01 01:37:69
  TRACK 69 AUDIO
    TITLE "4:cjc004_0372"
    INDEX 01 01:38:20
  TRACK 70 AUDIO
    TITLE "0:"
    INDEX 01 01:39:43
  TRACK 71 AUDIO
    TITLE "5:cjc004_0373"
    INDEX 01 01:39:70
  TRACK 72 AUDIO
    TITLE "0:"
    INDEX 01 01:42:71
  TRACK 73 AUDIO
    TITLE "3:cjc004_0374"
    INDEX 01 01:43:52
  TRACK 74 AUDIO
    TITLE "0:"
    INDEX 01 01:44:72
  TRACK 75 AUDIO
    TITLE "4:cjc004_0375"
    INDEX 01 01:45:28
  TRACK 76 AUDIO
    TITLE "0:"
    INDEX 01 01:46:45
  TRACK 77 AUDIO
    TITLE "5:cjc004_0376"
    INDEX 01 01:46:72
  TRACK 78 AUDIO
    TITLE "0:"
    INDEX 01 01:51:03
  TRACK 79 AUDIO
    TITLE "3:cjc004_0377"
    INDEX 01 01:51:60
  TRACK 80 AUDIO
    TITLE "0:"
    INDEX 01 01:53:10
  TRACK 81 AUDIO
    TITLE "4:cjc004_0378"
    INDEX 01 01:53:37
  TRACK 82 AUDIO
    TITLE "0:"
    INDEX 01 01:54:50
  TRACK 83 AUDIO
    TITLE "5:cjc004_0379"
    INDEX 01 01:55:05
  TRACK 84 AUDIO
    TITLE "0:"
    INDEX 01 01:58:44
